PathFileType	4	(X/Y/Z)	C:\Users\Basilio\Documents\Thesis Gigler\squatting_fais\c3dfiles\041\SLS_pre_front4\markers_experimental.trc
DataRate	CameraRate	NumFrames	NumMarkers	Units	OrigDataRate	OrigDataStartFrame	OrigNumFrames
200.000000	200.000000	4	63	mm	200.000000	1208	1381
Frame#	Time	FHD			LBHD			RBHD			C7			T10			CLAV			LSHO			LUUPA			LMUPA			LDUPA			LLEP			LMEP			LRAD			LUL			LRFIN			RSHO			RUPA1			RMUPA			RDUPA			RLEP			RMEP			RRAD			RUL			RUFIN			LASI			RASI			USACR			RSACR			LTHI1			LTHI2			LTHI3			LTHI4			LLFC			LMFC			LTIB1			LTIB2			LTIB3			LTIB4			LLMAL			LMMAL			LHEE			LMT1			LMT2			LMT5			RTHI			RTHI2			RTHI3			RTHI4			RLFC			RMFC			RTIB1			RTIB2			RTIB3			RTIB4			RLMAL			RMMAL			RHEE			RMT1			RMT2			RMT5			LSACR			*61			*62			
		X1	Y1	Z1	X2	Y2	Z2	X3	Y3	Z3	X4	Y4	Z4	X5	Y5	Z5	X6	Y6	Z6	X7	Y7	Z7	X8	Y8	Z8	X9	Y9	Z9	X10	Y10	Z10	X11	Y11	Z11	X12	Y12	Z12	X13	Y13	Z13	X14	Y14	Z14	X15	Y15	Z15	X16	Y16	Z16	X17	Y17	Z17	X18	Y18	Z18	X19	Y19	Z19	X20	Y20	Z20	X21	Y21	Z21	X22	Y22	Z22	X23	Y23	Z23	X24	Y24	Z24	X25	Y25	Z25	X26	Y26	Z26	X27	Y27	Z27	X28	Y28	Z28	X29	Y29	Z29	X30	Y30	Z30	X31	Y31	Z31	X32	Y32	Z32	X33	Y33	Z33	X34	Y34	Z34	X35	Y35	Z35	X36	Y36	Z36	X37	Y37	Z37	X38	Y38	Z38	X39	Y39	Z39	X40	Y40	Z40	X41	Y41	Z41	X42	Y42	Z42	X43	Y43	Z43	X44	Y44	Z44	X45	Y45	Z45	X46	Y46	Z46	X47	Y47	Z47	X48	Y48	Z48	X49	Y49	Z49	X50	Y50	Z50	X51	Y51	Z51	X52	Y52	Z52	X53	Y53	Z53	X54	Y54	Z54	X55	Y55	Z55	X56	Y56	Z56	X57	Y57	Z57	X58	Y58	Z58	X59	Y59	Z59	X60	Y60	Z60	X61	Y61	Z61	X62	Y62	Z62	X63	Y63	Z63	

1209	6.04	-195.7173309326172	1792.991577148438	-975.442077636719	-366.5809631347657	1710.989379882813	-1051.2822265625	-343.4467163085938	1708.140258789063	-900.159362792969	-389.3208007812501	1565.357421875	-990.1988525390627	-409.8348388671876	1247.081176757813	-974.254821777344	-228.2596893310547	1507.875610351563	-1001.152160644531	-329.1196289062501	1555.35205078125	-1171.401733398438	-413.8924865722657	1367.243774414063	-1234.959716796875	-383.6912231445313	1329.107666015625	-1232.58251953125	-438.4309692382814	1301.9755859375	-1239.609497070313	-453.4009399414064	1256.187377929688	-1233.124267578125	-443.2932128906251	1226.927612304688	-1151.019165039063	-426.0466918945314	977.4730224609377	-1239.286987304688	-492.7151794433595	999.0020751953127	-1265.927368164063	-438.4564514160157	901.5616455078127	-1263.544067382813	-293.0872192382813	1559.401123046875	-822.8571777343752	-410.5876464843751	1379.952880859375	-730.9708862304689	-367.1731567382813	1356.988037109375	-718.4505004882814	-406.7202758789064	1313.252197265625	-707.7894287109376	-414.7251586914064	1271.478881835938	-699.3904418945314	-420.3689880371095	1240.499633789063	-783.193542480469	-381.9391784667969	1005.428955078125	-676.1906127929689	-451.6609497070314	1023.49072265625	-649.6666870117189	-386.3240661621095	930.4219360351565	-645.4084472656251	-242.0825958251954	1060.925537109375	-1090.83837890625	-235.154525756836	1057.8193359375	-864.1462402343752	-415.9130249023439	1131.859252929688	-971.2128906250002	-431.0883789062501	1105.892822265625	-942.958435058594	-357.0483398437501	852.5681152343752	-1150.999389648438	-319.9453430175782	775.7400512695315	-1148.473266601563	-272.0567932128907	780.6080322265627	-1143.25244140625	-345.6303100585938	722.1862182617189	-1137.292114257813	-326.6808471679688	541.9893798828126	-1123.5126953125	-312.5008850097657	522.7110595703126	-1005.021789550781	-301.6502990722657	348.8137817382813	-1070.094482421875	-353.5046386718751	308.1161193847657	-1130.16552734375	-315.3895263671876	302.6984558105469	-1106.186889648438	-320.0973815917969	224.5883941650391	-1073.678588867188	-383.9104614257813	132.282211303711	-1109.0810546875	-342.6150207519532	139.7633209228516	-1030.004150390625	-448.0125732421876	117.7583465576172	-1063.912353515625	-241.1692352294922	65.95835876464845	-1042.965942382813	-235.5702056884766	57.77101516723634	-1088.014282226563	-284.9963989257813	40.58357238769532	-1139.064331054688	-341.4252014160157	797.1706542968752	-777.2979125976565	-300.2557678222657	745.7766113281251	-771.9942626953127	-267.5407409667969	749.3018188476564	-776.6389160156252	-322.3529968261719	664.5003662109376	-782.9294433593752	-312.4465942382813	540.7259521484376	-774.5957031250002	-294.7876892089844	513.8314208984376	-890.7561035156252	-292.6679992675782	370.2516174316407	-772.3883056640627	-382.4345092773438	304.7757873535157	-751.5599975585939	-336.6698608398438	296.9737854003907	-752.3567504882814	-319.9884338378907	244.9103546142579	-778.340026855469	-390.2438964843751	139.1812744140625	-756.4941406250001	-360.3866271972657	147.1233367919922	-835.2004394531252	-453.1604003906251	117.6614379882813	-804.1116333007815	-246.5780487060547	57.68510818481447	-817.3940429687502	-241.9980926513672	58.69297409057619	-765.4133300781251	-287.9808959960938	51.1221046447754	-715.2994384765626	-432.282928466797	1105.889892578125	-997.1274414062502	-4216.803222656251	853.1453247070315	-3944.730957031251	nan	nan	nan	
1210	6.045	-195.6656951904297	1792.946044921875	-974.2873535156252	-366.2805480957032	1711.013793945313	-1050.124389648438	-343.1866455078126	1708.0732421875	-898.959411621094	-389.0738525390626	1565.510864257813	-989.2059326171877	-409.5747985839845	1247.154296875	-973.3709716796877	-227.8588562011719	1507.947875976563	-1000.223022460938	-328.8680419921876	1555.398803710938	-1170.423217773438	-414.2483520507814	1367.693359375	-1233.942138671875	-384.0145568847657	1329.445190429688	-1231.642211914063	-438.6305236816407	1302.298095703125	-1238.582397460938	-454.0610656738282	1256.755126953125	-1232.258178710938	-443.7370910644532	1227.298950195313	-1150.225341796875	-427.9228515625001	978.0405883789065	-1239.042358398438	-494.4827880859376	999.8032226562502	-1265.3583984375	-440.7578125000001	902.1112060546877	-1263.536743164063	-292.7827453613282	1559.3720703125	-821.6964111328127	-410.462127685547	1380.07861328125	-729.9097290039064	-367.3042297363282	1357.115600585938	-717.0949096679689	-406.6742248535157	1313.46533203125	-706.7080688476564	-414.8340148925782	1271.741821289063	-698.3699340820314	-420.3362121582032	1240.629272460938	-781.9193115234377	-382.5039672851563	1005.758666992188	-674.4251708984376	-452.2788696289064	1023.743469238281	-648.2449340820314	-386.8168029785157	930.676696777344	-643.6552734375001	-241.8115692138672	1061.048217773438	-1090.298828125	-234.9575347900391	1057.860595703125	-863.2622070312502	-415.7588806152345	1131.946044921875	-970.2380981445315	-430.7562255859376	1105.952758789063	-941.9150390625002	-357.0714111328126	852.694274902344	-1150.263671875	-320.0459899902344	776.0371093750002	-1147.967651367188	-272.0094909667969	780.617614746094	-1142.44921875	-345.6628417968751	722.2926025390626	-1136.7685546875	-326.7581481933594	542.0161132812501	-1123.06005859375	-312.4864807128907	522.7064208984376	-1004.550964355469	-301.7872314453126	348.8183593750001	-1069.84521484375	-353.4580993652344	308.2427368164063	-1129.942016601563	-315.4854431152344	302.7713317871094	-1105.95654296875	-320.0845336914063	224.620346069336	-1073.599365234375	-383.9058532714844	132.3538970947266	-1109.037353515625	-342.5457153320313	139.8145904541016	-1029.978759765625	-448.013153076172	117.7697372436524	-1063.9189453125	-241.1727447509766	65.96949768066408	-1042.971435546875	-235.593490600586	57.77766036987306	-1088.005737304688	-285.0390930175782	40.56554794311524	-1139.077880859375	-341.2132873535157	797.2212524414065	-776.524841308594	-300.0747680664063	745.7576904296876	-771.3607177734377	-267.3851928710938	749.3466186523439	-776.0786132812502	-322.1806030273438	664.5443115234376	-782.4111328125002	-312.3928833007813	540.6571044921876	-774.296081542969	-294.8156433105469	513.9151000976564	-890.470153808594	-292.4488830566407	370.1597595214844	-772.1802368164065	-382.4064941406251	304.6451416015626	-751.3364257812501	-336.6620178222657	296.8804626464844	-752.1759033203126	-319.9396057128907	244.8887481689454	-778.2952880859377	-390.2106018066407	139.1308746337891	-756.4655151367189	-360.3896484375001	147.1314086914063	-835.1291503906252	-453.1292419433595	117.6358947753907	-804.0434570312502	-246.613265991211	57.67642974853517	-817.3819580078127	-242.0171661376954	58.63201141357423	-765.4137573242189	-287.9898681640626	51.09847640991212	-715.2578125000001	-432.1627502441407	1105.960205078125	-996.1690063476565	-4217.012207031251	853.192810058594	-3944.740234375001	nan	nan	nan	
1211	6.05	-195.3124542236329	1793.175415039063	-973.415954589844	-366.0162658691407	1710.948608398438	-1049.116577148438	-342.9057922363282	1708.001708984375	-897.6622314453127	-388.5326538085939	1565.452758789063	-988.0715332031252	-409.3929748535157	1247.216674804688	-972.3937988281252	-227.4013824462891	1507.949462890625	-999.4061279296877	-328.6383361816407	1555.444580078125	-1169.386108398438	-414.446990966797	1368.227172851563	-1232.928955078125	-384.3106689453126	1329.771362304688	-1230.809326171875	-439.4614257812501	1302.9501953125	-1237.805053710938	-454.4802856445314	1257.29296875	-1231.447875976563	-444.1455383300782	1227.669677734375	-1149.460205078125	-429.5228881835939	978.4525146484377	-1238.960571289063	-496.2834472656251	1000.756042480469	-1264.956909179688	-442.9876098632814	902.7769775390627	-1263.607177734375	-292.3426513671876	1559.327514648438	-820.6569824218752	-410.4148864746095	1380.252807617188	-728.8728027343751	-367.0294494628907	1357.181274414063	-716.0902709960939	-406.7258911132814	1313.618896484375	-705.6843261718751	-414.9061279296876	1271.903198242188	-697.1291503906251	-420.3079833984376	1240.691772460938	-780.868347167969	-382.7983703613282	1005.972106933594	-672.9308471679689	-452.5791015625001	1024.055053710938	-647.2219238281251	-387.3020629882814	931.1287231445315	-641.8245239257814	-241.3822631835938	1061.090454101563	-1089.618286132813	-234.6920928955079	1057.821899414063	-862.5357055664065	-415.5987548828126	1132.044311523438	-969.4893188476565	-430.632781982422	1105.916015625	-941.1453857421877	-357.0625000000001	852.7192993164065	-1149.516235351563	-320.0881652832032	776.1370239257815	-1147.277465820313	-271.9481811523438	780.655944824219	-1141.8037109375	-345.6080017089844	722.3607788085939	-1136.259521484375	-326.7770385742188	542.1510620117189	-1122.686279296875	-312.4912719726563	522.6856689453126	-1004.161010742188	-301.7638244628907	348.8728637695313	-1069.706420898438	-353.3834533691407	308.3962097167969	-1129.744873046875	-315.6353759765626	303.1018981933594	-1105.671997070313	-320.0792236328126	224.7158355712891	-1073.492797851563	-383.9189147949219	132.4239807128907	-1108.976684570313	-342.5023803710938	139.841064453125	-1029.972045898438	-448.0245361328126	117.8068923950196	-1063.888549804688	-241.1784973144532	65.94190979003908	-1043.005249023438	-235.674057006836	57.77726364135744	-1087.897338867188	-285.0101623535157	40.60651397705079	-1139.072875976563	-340.9719238281251	797.1647949218752	-775.8640747070315	-299.8442077636719	745.7222290039064	-770.8894653320315	-267.2652587890626	749.3083496093751	-775.6392822265627	-322.0298156738282	664.5405273437501	-781.8649902343752	-312.3739318847657	540.6248779296876	-773.980895996094	-294.9773254394532	513.9183959960939	-890.0505371093752	-292.5838317871094	370.1333923339844	-771.9964599609377	-382.5035705566407	304.5347900390626	-750.9749755859376	-336.6517639160157	296.7868957519532	-752.0115356445314	-319.9369506835938	244.8198547363282	-778.222595214844	-390.2353515625001	139.1145172119141	-756.3967895507814	-360.3625793457032	147.089584350586	-835.0438232421877	-453.1185302734376	117.665756225586	-804.0545043945315	-246.5315856933594	57.65772628784181	-817.4241943359377	-242.0220947265626	58.60222625732423	-765.3817749023439	-288.0593566894532	51.01387023925783	-715.2299194335939	-431.9815368652345	1105.997192382813	-995.2708740234377	-4216.893066406251	853.218200683594	-3944.833251953126	nan	nan	nan	
1212	6.055	-194.9667968750001	1793.28125	-972.4732055664065	-365.8103332519532	1710.95068359375	-1047.943481445313	-342.4006652832032	1708.11376953125	-896.642517089844	-388.1752319335939	1565.49462890625	-987.0306396484377	-409.2301025390626	1247.321044921875	-971.4849853515627	-226.9537048339844	1508.0341796875	-998.5296630859377	-328.4622802734376	1555.595092773438	-1168.366577148438	-414.7469482421876	1368.694458007813	-1231.964111328125	-384.6233825683595	1330.10888671875	-1230.034912109375	-440.0092773437501	1303.579467773438	-1236.877563476563	-455.0382080078126	1257.845336914063	-1230.585693359375	-444.6675415039064	1228.047485351563	-1148.69580078125	-431.1316528320314	978.867858886719	-1238.77099609375	-497.6080017089845	1001.41552734375	-1264.566528320313	-444.7771301269532	903.4145507812502	-1263.524047851563	-291.9487609863282	1559.332763671875	-819.6113281250002	-410.2379455566407	1380.416625976563	-727.8352050781251	-366.8390197753907	1357.2919921875	-715.1688232421876	-406.7381896972657	1313.7939453125	-704.5541992187501	-414.7843322753907	1272.046875	-696.1400756835939	-420.2331542968751	1240.833740234375	-779.6337890625002	-382.9191894531251	1006.095336914063	-671.4047241210939	-452.8646850585939	1024.25439453125	-645.9033203125001	-387.4634704589845	931.3120727539065	-639.9093627929689	-241.3934020996094	1061.035888671875	-1088.699096679688	-234.4357299804688	1057.8779296875	-861.7778320312502	-415.3720703125001	1132.126342773438	-968.482360839844	-430.2993774414064	1105.955932617188	-940.1557617187502	-357.0093994140626	852.8455200195315	-1148.778564453125	-320.1178588867188	776.2196044921877	-1146.793701171875	-271.8966674804688	780.7034301757815	-1141.30224609375	-345.6980285644532	722.5332641601564	-1135.712646484375	-326.5859375000001	542.1794433593751	-1122.297729492188	-312.5340881347657	522.6493530273439	-1003.800415039063	-301.6836547851563	348.9668884277344	-1069.4931640625	-353.6821594238282	308.3315734863282	-1129.595947265625	-315.6618041992188	302.8022155761719	-1105.512817382813	-319.9024658203126	224.9823913574219	-1073.23876953125	-383.8772583007813	132.4819488525391	-1108.974487304688	-342.4409790039063	139.8061828613282	-1029.906372070313	-447.9869995117189	117.8245697021485	-1063.850463867188	-241.1359252929688	65.94081878662111	-1043.058471679688	-235.5760498046876	57.8219337463379	-1088.043212890625	-285.0466613769532	40.61008453369141	-1139.057861328125	-340.7131042480469	797.143249511719	-775.319519042969	-299.6708679199219	745.7191162109376	-770.3948974609377	-266.9771728515626	749.2623291015626	-775.184020996094	-321.8665161132813	664.5145874023439	-781.4411621093752	-312.3154907226563	540.6082763671876	-773.6180419921877	-295.0181274414063	513.9633789062501	-889.6543579101565	-292.4603271484376	369.9555053710938	-771.680114746094	-382.6144409179688	304.4339904785157	-750.6535034179689	-336.6747741699219	296.6794433593751	-751.8243408203126	-319.9212951660157	244.7983093261719	-778.0609130859377	-390.2307128906251	139.050048828125	-756.3417358398439	-360.2363891601563	146.8390350341797	-835.0247802734377	-453.1380310058595	117.6498565673828	-804.0104980468752	-246.4960327148438	57.65011596679689	-817.3757324218752	-242.0487976074219	58.50917434692384	-765.3769531250001	-288.0939025878907	50.92879867553712	-715.2145996093751	-431.9066772460939	1106.073486328125	-994.3461914062502	-4217.106933593751	853.1907348632815	-3944.786621093751	nan	nan	nan	
